<svg xmlns="http://www.w3.org/2000/svg" width="400" height="400" viewBox="0 0 400 400"><g fill="none" stroke="#92efb8" stroke-width="9" stroke-linecap="round" stroke-linejoin="round"><path d="M127 44c0 105 146 107 146 210 0 53-73 68-73 107M273 44c0 105-146 107-146 210 0 53 73 68 73 107"/><path d="M135 77h130M159 112h82m-64 35h46m-68 37h90m-113 37h136m-138 37h140m-121 37h102m-70 37h38" stroke="#d8ffe4" stroke-width="6"/><circle cx="127" cy="44" r="11" fill="#92efb8"/><circle cx="273" cy="44" r="11" fill="#92efb8"/></g></svg>
